# Tiled2Unity generated file. Do not modify by hand.
# Wavefront file for 'World-1-100x100_2px_mesh_0004.obj'

# Vertices (Count = 36)
v -29 -3 0
v -31 -3 0
v -31 -1 0
v -29 -1 0
v -30 -3 0
v -32 -3 0
v -32 -1 0
v -30 -1 0
v -31 -3 0
v -33 -3 0
v -33 -1 0
v -31 -1 0
v -29 -4 0
v -31 -4 0
v -31 -2 0
v -29 -2 0
v -30 -4 0
v -32 -4 0
v -32 -2 0
v -30 -2 0
v -31 -4 0
v -33 -4 0
v -33 -2 0
v -31 -2 0
v -29 -5 0
v -31 -5 0
v -31 -3 0
v -29 -3 0
v -30 -5 0
v -32 -5 0
v -32 -3 0
v -30 -3 0
v -31 -5 0
v -33 -5 0
v -33 -3 0
v -31 -3 0

# Texture cooridinates (Count = 16)
vt 0 0.7443609
vt 0.125 0.7443609
vt 0.125 0.7518797
vt 0 0.7518797
vt 0.25 0.7443609
vt 0.25 0.7518797
vt 0.375 0.7443609
vt 0.375 0.7518797
vt 0 0.7368421
vt 0.125 0.7368421
vt 0.25 0.7368421
vt 0.375 0.7368421
vt 0 0.7293233
vt 0.125 0.7293233
vt 0.25 0.7293233
vt 0.375 0.7293233

# Normal
vn 0 0 -1

# Mesh description
g World-1-100x100_2px_mesh_0004

# Faces
f 1/1/1 2/2/1 3/3/1 4/4/1
f 5/2/1 6/5/1 7/6/1 8/3/1
f 9/5/1 10/7/1 11/8/1 12/6/1
f 13/9/1 14/10/1 15/2/1 16/1/1
f 17/10/1 18/11/1 19/5/1 20/2/1
f 21/11/1 22/12/1 23/7/1 24/5/1
f 25/13/1 26/14/1 27/10/1 28/9/1
f 29/14/1 30/15/1 31/11/1 32/10/1
f 33/15/1 34/16/1 35/12/1 36/11/1

