# Tiled2Unity generated file. Do not modify by hand.
# Wavefront file for 'World-BaseChip_mesh_0002.obj'

# Vertices (Count = 280)
v -38 -33 0
v -39 -33 0
v -39 -32 0
v -38 -32 0
v -37 -33 0
v -38 -33 0
v -38 -32 0
v -37 -32 0
v -38 -32 0
v -39 -32 0
v -39 -31 0
v -38 -31 0
v -37 -32 0
v -38 -32 0
v -38 -31 0
v -37 -31 0
v -51 -29 0
v -52 -29 0
v -52 -28 0
v -51 -28 0
v -50 -29 0
v -51 -29 0
v -51 -28 0
v -50 -28 0
v -51 -28 0
v -52 -28 0
v -52 -27 0
v -51 -27 0
v -50 -28 0
v -51 -28 0
v -51 -27 0
v -50 -27 0
v -69 -25 0
v -70 -25 0
v -70 -24 0
v -69 -24 0
v -68 -25 0
v -69 -25 0
v -69 -24 0
v -68 -24 0
v -44 -25 0
v -45 -25 0
v -45 -24 0
v -44 -24 0
v -69 -24 0
v -70 -24 0
v -70 -23 0
v -69 -23 0
v -68 -24 0
v -69 -24 0
v -69 -23 0
v -68 -23 0
v -44 -24 0
v -45 -24 0
v -45 -23 0
v -44 -23 0
v -62 -22 0
v -63 -22 0
v -63 -21 0
v -62 -21 0
v -61 -22 0
v -62 -22 0
v -62 -21 0
v -61 -21 0
v -62 -21 0
v -63 -21 0
v -63 -20 0
v -62 -20 0
v -61 -21 0
v -62 -21 0
v -62 -20 0
v -61 -20 0
v -59 -21 0
v -60 -21 0
v -60 -20 0
v -59 -20 0
v -58 -21 0
v -59 -21 0
v -59 -20 0
v -58 -20 0
v -55 -21 0
v -56 -21 0
v -56 -20 0
v -55 -20 0
v -54 -21 0
v -55 -21 0
v -55 -20 0
v -54 -20 0
v -37 -21 0
v -38 -21 0
v -38 -20 0
v -37 -20 0
v -67 -20 0
v -68 -20 0
v -68 -19 0
v -67 -19 0
v -66 -20 0
v -67 -20 0
v -67 -19 0
v -66 -19 0
v -59 -20 0
v -60 -20 0
v -60 -19 0
v -59 -19 0
v -58 -20 0
v -59 -20 0
v -59 -19 0
v -58 -19 0
v -55 -20 0
v -56 -20 0
v -56 -19 0
v -55 -19 0
v -54 -20 0
v -55 -20 0
v -55 -19 0
v -54 -19 0
v -47 -20 0
v -48 -20 0
v -48 -19 0
v -47 -19 0
v -46 -20 0
v -47 -20 0
v -47 -19 0
v -46 -19 0
v -37 -20 0
v -38 -20 0
v -38 -19 0
v -37 -19 0
v -67 -19 0
v -68 -19 0
v -68 -18 0
v -67 -18 0
v -66 -19 0
v -67 -19 0
v -67 -18 0
v -66 -18 0
v -47 -19 0
v -48 -19 0
v -48 -18 0
v -47 -18 0
v -46 -19 0
v -47 -19 0
v -47 -18 0
v -46 -18 0
v -61 -18 0
v -62 -18 0
v -62 -17 0
v -61 -17 0
v -60 -18 0
v -61 -18 0
v -61 -17 0
v -60 -17 0
v -61 -17 0
v -62 -17 0
v -62 -16 0
v -61 -16 0
v -60 -17 0
v -61 -17 0
v -61 -16 0
v -60 -16 0
v -55 -16 0
v -56 -16 0
v -56 -15 0
v -55 -15 0
v -54 -16 0
v -55 -16 0
v -55 -15 0
v -54 -15 0
v -34 -16 0
v -35 -16 0
v -35 -15 0
v -34 -15 0
v -33 -16 0
v -34 -16 0
v -34 -15 0
v -33 -15 0
v -29 -16 0
v -30 -16 0
v -30 -15 0
v -29 -15 0
v -55 -15 0
v -56 -15 0
v -56 -14 0
v -55 -14 0
v -54 -15 0
v -55 -15 0
v -55 -14 0
v -54 -14 0
v -41 -15 0
v -42 -15 0
v -42 -14 0
v -41 -14 0
v -40 -15 0
v -41 -15 0
v -41 -14 0
v -40 -14 0
v -34 -15 0
v -35 -15 0
v -35 -14 0
v -34 -14 0
v -33 -15 0
v -34 -15 0
v -34 -14 0
v -33 -14 0
v -29 -15 0
v -30 -15 0
v -30 -14 0
v -29 -14 0
v -46 -14 0
v -47 -14 0
v -47 -13 0
v -46 -13 0
v -41 -14 0
v -42 -14 0
v -42 -13 0
v -41 -13 0
v -40 -14 0
v -41 -14 0
v -41 -13 0
v -40 -13 0
v -68 -13 0
v -69 -13 0
v -69 -12 0
v -68 -12 0
v -67 -13 0
v -68 -13 0
v -68 -12 0
v -67 -12 0
v -46 -13 0
v -47 -13 0
v -47 -12 0
v -46 -12 0
v -68 -12 0
v -69 -12 0
v -69 -11 0
v -68 -11 0
v -67 -12 0
v -68 -12 0
v -68 -11 0
v -67 -11 0
v -55 -11 0
v -56 -11 0
v -56 -10 0
v -55 -10 0
v -54 -11 0
v -55 -11 0
v -55 -10 0
v -54 -10 0
v -35 -11 0
v -36 -11 0
v -36 -10 0
v -35 -10 0
v -64 -10 0
v -65 -10 0
v -65 -9 0
v -64 -9 0
v -63 -10 0
v -64 -10 0
v -64 -9 0
v -63 -9 0
v -55 -10 0
v -56 -10 0
v -56 -9 0
v -55 -9 0
v -54 -10 0
v -55 -10 0
v -55 -9 0
v -54 -9 0
v -35 -10 0
v -36 -10 0
v -36 -9 0
v -35 -9 0
v -64 -9 0
v -65 -9 0
v -65 -8 0
v -64 -8 0
v -63 -9 0
v -64 -9 0
v -64 -8 0
v -63 -8 0

# Texture cooridinates (Count = 24)
vt 0.75 0.8195488
vt 0.875 0.8195488
vt 0.875 0.8270677
vt 0.75 0.8270677
vt 0.625 0.8195488
vt 0.625 0.8270677
vt 0.875 0.8345865
vt 0.75 0.8345865
vt 0.625 0.8345865
vt 0.375 0.9774436
vt 0.5 0.9774436
vt 0.5 0.9849624
vt 0.375 0.9849624
vt 0.25 0.9774436
vt 0.25 0.9849624
vt 0.375 0.8421053
vt 0.5 0.8421053
vt 0.5 0.849624
vt 0.375 0.849624
vt 0.5 0.9924812
vt 0.375 0.9924812
vt 0.25 0.9924812
vt 0.5 0.8571429
vt 0.375 0.8571429

# Normal
vn 0 0 -1

# Mesh description
g World-BaseChip_mesh_0002

# Faces
f 1/1/1 2/2/1 3/3/1 4/4/1
f 5/5/1 6/1/1 7/4/1 8/6/1
f 9/4/1 10/3/1 11/7/1 12/8/1
f 13/6/1 14/4/1 15/8/1 16/9/1
f 17/1/1 18/2/1 19/3/1 20/4/1
f 21/5/1 22/1/1 23/4/1 24/6/1
f 25/4/1 26/3/1 27/7/1 28/8/1
f 29/6/1 30/4/1 31/8/1 32/9/1
f 33/10/1 34/11/1 35/12/1 36/13/1
f 37/14/1 38/10/1 39/13/1 40/15/1
f 41/16/1 42/17/1 43/18/1 44/19/1
f 45/13/1 46/12/1 47/20/1 48/21/1
f 49/15/1 50/13/1 51/21/1 52/22/1
f 53/19/1 54/18/1 55/23/1 56/24/1
f 57/10/1 58/11/1 59/12/1 60/13/1
f 61/14/1 62/10/1 63/13/1 64/15/1
f 65/13/1 66/12/1 67/20/1 68/21/1
f 69/15/1 70/13/1 71/21/1 72/22/1
f 73/10/1 74/11/1 75/12/1 76/13/1
f 77/14/1 78/10/1 79/13/1 80/15/1
f 81/10/1 82/11/1 83/12/1 84/13/1
f 85/14/1 86/10/1 87/13/1 88/15/1
f 89/16/1 90/17/1 91/18/1 92/19/1
f 93/10/1 94/11/1 95/12/1 96/13/1
f 97/14/1 98/10/1 99/13/1 100/15/1
f 101/13/1 102/12/1 103/20/1 104/21/1
f 105/15/1 106/13/1 107/21/1 108/22/1
f 109/13/1 110/12/1 111/20/1 112/21/1
f 113/15/1 114/13/1 115/21/1 116/22/1
f 117/10/1 118/11/1 119/12/1 120/13/1
f 121/14/1 122/10/1 123/13/1 124/15/1
f 125/19/1 126/18/1 127/23/1 128/24/1
f 129/13/1 130/12/1 131/20/1 132/21/1
f 133/15/1 134/13/1 135/21/1 136/22/1
f 137/13/1 138/12/1 139/20/1 140/21/1
f 141/15/1 142/13/1 143/21/1 144/22/1
f 145/10/1 146/11/1 147/12/1 148/13/1
f 149/14/1 150/10/1 151/13/1 152/15/1
f 153/13/1 154/12/1 155/20/1 156/21/1
f 157/15/1 158/13/1 159/21/1 160/22/1
f 161/10/1 162/11/1 163/12/1 164/13/1
f 165/14/1 166/10/1 167/13/1 168/15/1
f 169/1/1 170/2/1 171/3/1 172/4/1
f 173/5/1 174/1/1 175/4/1 176/6/1
f 177/16/1 178/17/1 179/18/1 180/19/1
f 181/13/1 182/12/1 183/20/1 184/21/1
f 185/15/1 186/13/1 187/21/1 188/22/1
f 189/1/1 190/2/1 191/3/1 192/4/1
f 193/16/1 194/17/1 195/18/1 196/19/1
f 197/4/1 198/3/1 199/7/1 200/8/1
f 201/6/1 202/4/1 203/8/1 204/9/1
f 205/19/1 206/18/1 207/23/1 208/24/1
f 209/16/1 210/17/1 211/18/1 212/19/1
f 213/4/1 214/3/1 215/7/1 216/8/1
f 217/19/1 218/18/1 219/23/1 220/24/1
f 221/10/1 222/11/1 223/12/1 224/13/1
f 225/14/1 226/10/1 227/13/1 228/15/1
f 229/19/1 230/18/1 231/23/1 232/24/1
f 233/13/1 234/12/1 235/20/1 236/21/1
f 237/15/1 238/13/1 239/21/1 240/22/1
f 241/10/1 242/11/1 243/12/1 244/13/1
f 245/14/1 246/10/1 247/13/1 248/15/1
f 249/16/1 250/17/1 251/18/1 252/19/1
f 253/10/1 254/11/1 255/12/1 256/13/1
f 257/14/1 258/10/1 259/13/1 260/15/1
f 261/13/1 262/12/1 263/20/1 264/21/1
f 265/15/1 266/13/1 267/21/1 268/22/1
f 269/19/1 270/18/1 271/23/1 272/24/1
f 273/13/1 274/12/1 275/20/1 276/21/1
f 277/15/1 278/13/1 279/21/1 280/22/1

