# Tiled2Unity generated file. Do not modify by hand.
# Wavefront file for 'World-Right-Down-100x100tiles_mesh_0004.obj'

# Vertices (Count = 164)
v -16 -33 0
v -17 -33 0
v -17 -32 0
v -16 -32 0
v -16 -32 0
v -17 -32 0
v -17 -31 0
v -16 -31 0
v -15 -32 0
v -16 -32 0
v -16 -31 0
v -15 -31 0
v -17 -31 0
v -18 -31 0
v -18 -30 0
v -17 -30 0
v -16 -31 0
v -17 -31 0
v -17 -30 0
v -16 -30 0
v -18 -30 0
v -19 -30 0
v -19 -29 0
v -18 -29 0
v -19 -29 0
v -20 -29 0
v -20 -28 0
v -19 -28 0
v -20 -28 0
v -21 -28 0
v -21 -27 0
v -20 -27 0
v -21 -27 0
v -22 -27 0
v -22 -26 0
v -21 -26 0
v -22 -26 0
v -23 -26 0
v -23 -25 0
v -22 -25 0
v -23 -25 0
v -24 -25 0
v -24 -24 0
v -23 -24 0
v -24 -24 0
v -25 -24 0
v -25 -23 0
v -24 -23 0
v -25 -23 0
v -26 -23 0
v -26 -22 0
v -25 -22 0
v -26 -22 0
v -27 -22 0
v -27 -21 0
v -26 -21 0
v -27 -21 0
v -28 -21 0
v -28 -20 0
v -27 -20 0
v -28 -20 0
v -29 -20 0
v -29 -19 0
v -28 -19 0
v -29 -19 0
v -30 -19 0
v -30 -18 0
v -29 -18 0
v -30 -18 0
v -31 -18 0
v -31 -17 0
v -30 -17 0
v -31 -17 0
v -32 -17 0
v -32 -16 0
v -31 -16 0
v -32 -16 0
v -33 -16 0
v -33 -15 0
v -32 -15 0
v -33 -15 0
v -34 -15 0
v -34 -14 0
v -33 -14 0
v -34 -14 0
v -35 -14 0
v -35 -13 0
v -34 -13 0
v -35 -13 0
v -36 -13 0
v -36 -12 0
v -35 -12 0
v -36 -12 0
v -37 -12 0
v -37 -11 0
v -36 -11 0
v -37 -11 0
v -38 -11 0
v -38 -10 0
v -37 -10 0
v -38 -10 0
v -39 -10 0
v -39 -9 0
v -38 -9 0
v -39 -9 0
v -40 -9 0
v -40 -8 0
v -39 -8 0
v -40 -8 0
v -41 -8 0
v -41 -7 0
v -40 -7 0
v -41 -7 0
v -42 -7 0
v -42 -6 0
v -41 -6 0
v -42 -6 0
v -43 -6 0
v -43 -5 0
v -42 -5 0
v -57 -5 0
v -58 -5 0
v -58 -4 0
v -57 -4 0
v -47 -5 0
v -48 -5 0
v -48 -4 0
v -47 -4 0
v -43 -5 0
v -44 -5 0
v -44 -4 0
v -43 -4 0
v -57 -4 0
v -58 -4 0
v -58 -3 0
v -57 -3 0
v -47 -4 0
v -48 -4 0
v -48 -3 0
v -47 -3 0
v -57 -3 0
v -58 -3 0
v -58 -2 0
v -57 -2 0
v -47 -3 0
v -48 -3 0
v -48 -2 0
v -47 -2 0
v -57 -2 0
v -58 -2 0
v -58 -1 0
v -57 -1 0
v -47 -2 0
v -48 -2 0
v -48 -1 0
v -47 -1 0
v -57 -1 0
v -58 -1 0
v -58 0 0
v -57 0 0
v -47 -1 0
v -48 -1 0
v -48 0 0
v -47 0 0

# Texture cooridinates (Count = 22)
vt 0.175 0.5555556
vt 0.2 0.5555556
vt 0.2 0.5833334
vt 0.175 0.5833334
vt 0.125 0.5555556
vt 0.15 0.5555556
vt 0.15 0.5833334
vt 0.125 0.5833334
vt 0.2 0.6111111
vt 0.175 0.6111111
vt 0.2 0.6388889
vt 0.175 0.6388889
vt 0.5 0.3888889
vt 0.525 0.3888889
vt 0.525 0.4166667
vt 0.5 0.4166667
vt 0.525 0.4444444
vt 0.5 0.4444444
vt 0.45 0.4166667
vt 0.475 0.4166667
vt 0.475 0.4444444
vt 0.45 0.4444444

# Normal
vn 0 0 -1

# Mesh description
g World-Right-Down-100x100tiles_mesh_0004

# Faces
f 1/1/1 2/2/1 3/3/1 4/4/1
f 5/5/1 6/6/1 7/7/1 8/8/1
f 9/5/1 10/6/1 11/7/1 12/8/1
f 13/4/1 14/3/1 15/9/1 16/10/1
f 17/10/1 18/9/1 19/11/1 20/12/1
f 21/4/1 22/3/1 23/9/1 24/10/1
f 25/4/1 26/3/1 27/9/1 28/10/1
f 29/4/1 30/3/1 31/9/1 32/10/1
f 33/4/1 34/3/1 35/9/1 36/10/1
f 37/4/1 38/3/1 39/9/1 40/10/1
f 41/4/1 42/3/1 43/9/1 44/10/1
f 45/4/1 46/3/1 47/9/1 48/10/1
f 49/4/1 50/3/1 51/9/1 52/10/1
f 53/4/1 54/3/1 55/9/1 56/10/1
f 57/4/1 58/3/1 59/9/1 60/10/1
f 61/4/1 62/3/1 63/9/1 64/10/1
f 65/4/1 66/3/1 67/9/1 68/10/1
f 69/4/1 70/3/1 71/9/1 72/10/1
f 73/4/1 74/3/1 75/9/1 76/10/1
f 77/4/1 78/3/1 79/9/1 80/10/1
f 81/4/1 82/3/1 83/9/1 84/10/1
f 85/4/1 86/3/1 87/9/1 88/10/1
f 89/4/1 90/3/1 91/9/1 92/10/1
f 93/4/1 94/3/1 95/9/1 96/10/1
f 97/4/1 98/3/1 99/9/1 100/10/1
f 101/4/1 102/3/1 103/9/1 104/10/1
f 105/4/1 106/3/1 107/9/1 108/10/1
f 109/4/1 110/3/1 111/9/1 112/10/1
f 113/4/1 114/3/1 115/9/1 116/10/1
f 117/4/1 118/3/1 119/9/1 120/10/1
f 121/13/1 122/14/1 123/15/1 124/16/1
f 125/5/1 126/6/1 127/7/1 128/8/1
f 129/4/1 130/3/1 131/9/1 132/10/1
f 133/16/1 134/15/1 135/17/1 136/18/1
f 137/19/1 138/20/1 139/21/1 140/22/1
f 141/16/1 142/15/1 143/17/1 144/18/1
f 145/19/1 146/20/1 147/21/1 148/22/1
f 149/16/1 150/15/1 151/17/1 152/18/1
f 153/19/1 154/20/1 155/21/1 156/22/1
f 157/16/1 158/15/1 159/17/1 160/18/1
f 161/19/1 162/20/1 163/21/1 164/22/1

