# Tiled2Unity generated file. Do not modify by hand.
# Wavefront file for 'World-1-100x100px_mesh_0007.obj'

# Vertices (Count = 300)
v -14.5 -4 -0.07
v -15.5 -4 -0.07
v -15.5 -3 -0.07
v -14.5 -3 -0.07
v -15.5 -4 -0.07
v -16.5 -4 -0.07
v -16.5 -3 -0.07
v -15.5 -3 -0.07
v -16.5 -4 -0.07
v -17.5 -4 -0.07
v -17.5 -3 -0.07
v -16.5 -3 -0.07
v -5.5 -4.5 -0.08
v -6.5 -4.5 -0.08
v -6.5 -3.5 -0.08
v -5.5 -3.5 -0.08
v -6 -4.5 -0.08
v -7 -4.5 -0.08
v -7 -3.5 -0.08
v -6 -3.5 -0.08
v -6.5 -4.5 -0.08
v -7.5 -4.5 -0.08
v -7.5 -3.5 -0.08
v -6.5 -3.5 -0.08
v -7 -4.5 -0.08
v -8 -4.5 -0.08
v -8 -3.5 -0.08
v -7 -3.5 -0.08
v -7.5 -4.5 -0.08
v -8.5 -4.5 -0.08
v -8.5 -3.5 -0.08
v -7.5 -3.5 -0.08
v -8 -4.5 -0.08
v -9 -4.5 -0.08
v -9 -3.5 -0.08
v -8 -3.5 -0.08
v -8.5 -4.5 -0.08
v -9.5 -4.5 -0.08
v -9.5 -3.5 -0.08
v -8.5 -3.5 -0.08
v -5.5 -5 -0.09
v -6.5 -5 -0.09
v -6.5 -4 -0.09
v -5.5 -4 -0.09
v -6 -5 -0.09
v -7 -5 -0.09
v -7 -4 -0.09
v -6 -4 -0.09
v -6.5 -5 -0.09
v -7.5 -5 -0.09
v -7.5 -4 -0.09
v -6.5 -4 -0.09
v -7 -5 -0.09
v -8 -5 -0.09
v -8 -4 -0.09
v -7 -4 -0.09
v -7.5 -5 -0.09
v -8.5 -5 -0.09
v -8.5 -4 -0.09
v -7.5 -4 -0.09
v -8 -5 -0.09
v -9 -5 -0.09
v -9 -4 -0.09
v -8 -4 -0.09
v -8.5 -5 -0.09
v -9.5 -5 -0.09
v -9.5 -4 -0.09
v -8.5 -4 -0.09
v -15 -5 -0.09
v -16 -5 -0.09
v -16 -4 -0.09
v -15 -4 -0.09
v -16 -5 -0.09
v -17 -5 -0.09
v -17 -4 -0.09
v -16 -4 -0.09
v -5.5 -5.5 -0.1
v -6.5 -5.5 -0.1
v -6.5 -4.5 -0.1
v -5.5 -4.5 -0.1
v -6.5 -5.5 -0.1
v -7.5 -5.5 -0.1
v -7.5 -4.5 -0.1
v -6.5 -4.5 -0.1
v -7.5 -5.5 -0.1
v -8.5 -5.5 -0.1
v -8.5 -4.5 -0.1
v -7.5 -4.5 -0.1
v -8.5 -5.5 -0.1
v -9.5 -5.5 -0.1
v -9.5 -4.5 -0.1
v -8.5 -4.5 -0.1
v -15 -5.5 -0.1
v -16 -5.5 -0.1
v -16 -4.5 -0.1
v -15 -4.5 -0.1
v -16 -5.5 -0.1
v -17 -5.5 -0.1
v -17 -4.5 -0.1
v -16 -4.5 -0.1
v -14 -6.5 -0.12
v -15 -6.5 -0.12
v -15 -5.5 -0.12
v -14 -5.5 -0.12
v -15 -6.5 -0.12
v -16 -6.5 -0.12
v -16 -5.5 -0.12
v -15 -5.5 -0.12
v -16 -6.5 -0.12
v -17 -6.5 -0.12
v -17 -5.5 -0.12
v -16 -5.5 -0.12
v -16.5 -6.5 -0.12
v -17.5 -6.5 -0.12
v -17.5 -5.5 -0.12
v -16.5 -5.5 -0.12
v -44 -35 -0.69
v -45 -35 -0.69
v -45 -34 -0.69
v -44 -34 -0.69
v -45 -35 -0.69
v -46 -35 -0.69
v -46 -34 -0.69
v -45 -34 -0.69
v -46 -35 -0.69
v -47 -35 -0.69
v -47 -34 -0.69
v -46 -34 -0.69
v -46.5 -35 -0.69
v -47.5 -35 -0.69
v -47.5 -34 -0.69
v -46.5 -34 -0.69
v -47.5 -35 -0.69
v -48.5 -35 -0.69
v -48.5 -34 -0.69
v -47.5 -34 -0.69
v -44 -36 -0.71
v -45 -36 -0.71
v -45 -35 -0.71
v -44 -35 -0.71
v -45 -36 -0.71
v -46 -36 -0.71
v -46 -35 -0.71
v -45 -35 -0.71
v -45.5 -36 -0.71
v -46.5 -36 -0.71
v -46.5 -35 -0.71
v -45.5 -35 -0.71
v -46.5 -36 -0.71
v -47.5 -36 -0.71
v -47.5 -35 -0.71
v -46.5 -35 -0.71
v -47.5 -36 -0.71
v -48.5 -36 -0.71
v -48.5 -35 -0.71
v -47.5 -35 -0.71
v -44 -36.5 -0.72
v -45 -36.5 -0.72
v -45 -35.5 -0.72
v -44 -35.5 -0.72
v -45 -36.5 -0.72
v -46 -36.5 -0.72
v -46 -35.5 -0.72
v -45 -35.5 -0.72
v -46 -36.5 -0.72
v -47 -36.5 -0.72
v -47 -35.5 -0.72
v -46 -35.5 -0.72
v -46.5 -36.5 -0.72
v -47.5 -36.5 -0.72
v -47.5 -35.5 -0.72
v -46.5 -35.5 -0.72
v -47.5 -36.5 -0.72
v -48.5 -36.5 -0.72
v -48.5 -35.5 -0.72
v -47.5 -35.5 -0.72
v -44 -37.5 -0.74
v -45 -37.5 -0.74
v -45 -36.5 -0.74
v -44 -36.5 -0.74
v -45 -37.5 -0.74
v -46 -37.5 -0.74
v -46 -36.5 -0.74
v -45 -36.5 -0.74
v -46 -37.5 -0.74
v -47 -37.5 -0.74
v -47 -36.5 -0.74
v -46 -36.5 -0.74
v -46.5 -37.5 -0.74
v -47.5 -37.5 -0.74
v -47.5 -36.5 -0.74
v -46.5 -36.5 -0.74
v -47.5 -37.5 -0.74
v -48.5 -37.5 -0.74
v -48.5 -36.5 -0.74
v -47.5 -36.5 -0.74
v -44 -38.5 -0.76
v -45 -38.5 -0.76
v -45 -37.5 -0.76
v -44 -37.5 -0.76
v -45 -38.5 -0.76
v -46 -38.5 -0.76
v -46 -37.5 -0.76
v -45 -37.5 -0.76
v -46 -38.5 -0.76
v -47 -38.5 -0.76
v -47 -37.5 -0.76
v -46 -37.5 -0.76
v -46.5 -38.5 -0.76
v -47.5 -38.5 -0.76
v -47.5 -37.5 -0.76
v -46.5 -37.5 -0.76
v -47.5 -38.5 -0.76
v -48.5 -38.5 -0.76
v -48.5 -37.5 -0.76
v -47.5 -37.5 -0.76
v -25 -47 -0.93
v -26 -47 -0.93
v -26 -46 -0.93
v -25 -46 -0.93
v -25.5 -47 -0.93
v -26.5 -47 -0.93
v -26.5 -46 -0.93
v -25.5 -46 -0.93
v -26 -47 -0.93
v -27 -47 -0.93
v -27 -46 -0.93
v -26 -46 -0.93
v -26.5 -47 -0.93
v -27.5 -47 -0.93
v -27.5 -46 -0.93
v -26.5 -46 -0.93
v -27 -47 -0.93
v -28 -47 -0.93
v -28 -46 -0.93
v -27 -46 -0.93
v -27.5 -47 -0.93
v -28.5 -47 -0.93
v -28.5 -46 -0.93
v -27.5 -46 -0.93
v -28 -47 -0.93
v -29 -47 -0.93
v -29 -46 -0.93
v -28 -46 -0.93
v -29 -47 -0.93
v -30 -47 -0.93
v -30 -46 -0.93
v -29 -46 -0.93
v -26 -48 -0.95
v -27 -48 -0.95
v -27 -47 -0.95
v -26 -47 -0.95
v -26.5 -48 -0.95
v -27.5 -48 -0.95
v -27.5 -47 -0.95
v -26.5 -47 -0.95
v -27 -48 -0.95
v -28 -48 -0.95
v -28 -47 -0.95
v -27 -47 -0.95
v -27.5 -48 -0.95
v -28.5 -48 -0.95
v -28.5 -47 -0.95
v -27.5 -47 -0.95
v -28 -48 -0.95
v -29 -48 -0.95
v -29 -47 -0.95
v -28 -47 -0.95
v -29 -48 -0.95
v -30 -48 -0.95
v -30 -47 -0.95
v -29 -47 -0.95
v -25 -49 -0.97
v -26 -49 -0.97
v -26 -48 -0.97
v -25 -48 -0.97
v -26 -49 -0.97
v -27 -49 -0.97
v -27 -48 -0.97
v -26 -48 -0.97
v -26.5 -49 -0.97
v -27.5 -49 -0.97
v -27.5 -48 -0.97
v -26.5 -48 -0.97
v -27 -49 -0.97
v -28 -49 -0.97
v -28 -48 -0.97
v -27 -48 -0.97
v -27.5 -49 -0.97
v -28.5 -49 -0.97
v -28.5 -48 -0.97
v -27.5 -48 -0.97
v -28 -49 -0.97
v -29 -49 -0.97
v -29 -48 -0.97
v -28 -48 -0.97
v -29 -49 -0.97
v -30 -49 -0.97
v -30 -48 -0.97
v -29 -48 -0.97

# Texture cooridinates (Count = 44)
vt 0.125 0.7443609
vt 0.25 0.7443609
vt 0.25 0.7518797
vt 0.125 0.7518797
vt 0.375 0.7443609
vt 0.375 0.7518797
vt 0.5 0.8345865
vt 0.625 0.8345865
vt 0.625 0.8421053
vt 0.5 0.8421053
vt 0.625 0.9473684
vt 0.75 0.9473684
vt 0.75 0.9548872
vt 0.625 0.9548872
vt 0.125 0.9398496
vt 0.25 0.9398496
vt 0.25 0.9473684
vt 0.125 0.9473684
vt 0 0.9398496
vt 0 0.9473684
vt 0.125 0.7368421
vt 0.25 0.7368421
vt 0.5 0.9473684
vt 0.5 0.9548872
vt 0 0.7293233
vt 0.125 0.7293233
vt 0 0.7368421
vt 0.25 0.7293233
vt 0.375 0.7293233
vt 0.375 0.7368421
vt 0.5 0.7443609
vt 0.5 0.7518797
vt 0.625 0.7443609
vt 0.625 0.7518797
vt 0.75 0.7443609
vt 0.75 0.7518797
vt 0.5 0.7368421
vt 0.625 0.7368421
vt 0.75 0.7368421
vt 0.5 0.7293233
vt 0.625 0.7293233
vt 0.75 0.7293233
vt 0 0.7443609
vt 0 0.7518797

# Normal
vn 0 0 -1

# Mesh description
g World-1-100x100px_mesh_0007

# Faces
f 1/1/1 2/2/1 3/3/1 4/4/1
f 5/1/1 6/2/1 7/3/1 8/4/1
f 9/2/1 10/5/1 11/6/1 12/3/1
f 13/7/1 14/8/1 15/9/1 16/10/1
f 17/7/1 18/8/1 19/9/1 20/10/1
f 21/7/1 22/8/1 23/9/1 24/10/1
f 25/7/1 26/8/1 27/9/1 28/10/1
f 29/7/1 30/8/1 31/9/1 32/10/1
f 33/7/1 34/8/1 35/9/1 36/10/1
f 37/7/1 38/8/1 39/9/1 40/10/1
f 41/11/1 42/12/1 43/13/1 44/14/1
f 45/15/1 46/16/1 47/17/1 48/18/1
f 49/11/1 50/12/1 51/13/1 52/14/1
f 53/19/1 54/15/1 55/18/1 56/20/1
f 57/11/1 58/12/1 59/13/1 60/14/1
f 61/15/1 62/16/1 63/17/1 64/18/1
f 65/11/1 66/12/1 67/13/1 68/14/1
f 69/21/1 70/22/1 71/2/1 72/1/1
f 73/21/1 74/22/1 75/2/1 76/1/1
f 77/23/1 78/11/1 79/14/1 80/24/1
f 81/23/1 82/11/1 83/14/1 84/24/1
f 85/23/1 86/11/1 87/14/1 88/24/1
f 89/23/1 90/11/1 91/14/1 92/24/1
f 93/21/1 94/22/1 95/2/1 96/1/1
f 97/21/1 98/22/1 99/2/1 100/1/1
f 101/25/1 102/26/1 103/21/1 104/27/1
f 105/26/1 106/28/1 107/22/1 108/21/1
f 109/26/1 110/28/1 111/22/1 112/21/1
f 113/28/1 114/29/1 115/30/1 116/22/1
f 117/5/1 118/31/1 119/32/1 120/6/1
f 121/31/1 122/33/1 123/34/1 124/32/1
f 125/31/1 126/33/1 127/34/1 128/32/1
f 129/31/1 130/33/1 131/34/1 132/32/1
f 133/33/1 134/35/1 135/36/1 136/34/1
f 137/30/1 138/37/1 139/31/1 140/5/1
f 141/37/1 142/38/1 143/33/1 144/31/1
f 145/37/1 146/38/1 147/33/1 148/31/1
f 149/37/1 150/38/1 151/33/1 152/31/1
f 153/38/1 154/39/1 155/35/1 156/33/1
f 157/30/1 158/37/1 159/31/1 160/5/1
f 161/37/1 162/38/1 163/33/1 164/31/1
f 165/37/1 166/38/1 167/33/1 168/31/1
f 169/37/1 170/38/1 171/33/1 172/31/1
f 173/38/1 174/39/1 175/35/1 176/33/1
f 177/30/1 178/37/1 179/31/1 180/5/1
f 181/37/1 182/38/1 183/33/1 184/31/1
f 185/37/1 186/38/1 187/33/1 188/31/1
f 189/37/1 190/38/1 191/33/1 192/31/1
f 193/38/1 194/39/1 195/35/1 196/33/1
f 197/29/1 198/40/1 199/37/1 200/30/1
f 201/40/1 202/41/1 203/38/1 204/37/1
f 205/40/1 206/41/1 207/38/1 208/37/1
f 209/40/1 210/41/1 211/38/1 212/37/1
f 213/41/1 214/42/1 215/39/1 216/38/1
f 217/43/1 218/1/1 219/4/1 220/44/1
f 221/1/1 222/2/1 223/3/1 224/4/1
f 225/1/1 226/2/1 227/3/1 228/4/1
f 229/1/1 230/2/1 231/3/1 232/4/1
f 233/1/1 234/2/1 235/3/1 236/4/1
f 237/1/1 238/2/1 239/3/1 240/4/1
f 241/1/1 242/2/1 243/3/1 244/4/1
f 245/2/1 246/5/1 247/6/1 248/3/1
f 249/21/1 250/22/1 251/2/1 252/1/1
f 253/21/1 254/22/1 255/2/1 256/1/1
f 257/21/1 258/22/1 259/2/1 260/1/1
f 261/21/1 262/22/1 263/2/1 264/1/1
f 265/21/1 266/22/1 267/2/1 268/1/1
f 269/22/1 270/30/1 271/5/1 272/2/1
f 273/25/1 274/26/1 275/21/1 276/27/1
f 277/26/1 278/28/1 279/22/1 280/21/1
f 281/26/1 282/28/1 283/22/1 284/21/1
f 285/26/1 286/28/1 287/22/1 288/21/1
f 289/26/1 290/28/1 291/22/1 292/21/1
f 293/26/1 294/28/1 295/22/1 296/21/1
f 297/28/1 298/29/1 299/30/1 300/22/1

